#!OML:ASF H:\Terrain\Patient Classification 1\Walking\liu\liu.ASF
:FULLY-SPECIFIED
:DEGREES
197
root -2.89419 16.3232 -36.1216 3.86702 0.631712 -2.93651
lowerback 7.25995 1.93438 -1.70525
upperback -3.78997 2.51452 1.33137
thorax -8.21321 1.36411 2.00316
lowerneck -3.30623 -3.895 -6.60729
upperneck 6.78963 -5.25785 6.02766
head 3.19053 -2.59183 2.97446
rclavicle -1.21973e-014 -1.37161e-014
rhumerus -32.2573 1.99052 -79.9145
rradius 30.4441
rwrist 3.24213
rhand -20.0031 -26.7458
rfingers 7.12502
rthumb 6.33681 -56.631
lclavicle -1.21973e-014 -1.37161e-014
lhumerus -26.6276 -1.6512 88.6373
lradius 24.2047
lwrist -31.5175
lhand -28.327 30.2094
lfingers 7.12502
lthumb -1.70172 60.1824
rfemur -23.8373 -7.43777 14.66
rtibia 50.4323
rfoot -27.4724 2.07067
rtoes -8.23686
lfemur -23.8909 6.67309 -8.20976
ltibia 48.3932
lfoot -23.6244 0.434763
ltoes -9.84042
198
root -2.89409 16.3212 -36.1202 3.86582 0.645175 -2.91998
lowerback 7.25312 1.9246 -1.71806
upperback -3.78057 2.50018 1.33347
thorax -8.19904 1.35769 2.01502
lowerneck -3.3554 -3.88403 -6.63604
upperneck 6.8325 -5.24185 6.05009
head 3.21566 -2.58325 2.98805
rclavicle -4.2199e-014 -2.26615e-014
rhumerus -32.2326 2.06459 -79.9302
rradius 30.4577
rwrist 3.22058
rhand -19.9306 -26.8937
rfingers 7.12502
rthumb 6.40679 -56.7769
lclavicle -4.2199e-014 -2.26615e-014
lhumerus -26.6121 -1.63591 88.6557
lradius 24.2219
lwrist -31.4701
lhand -28.3141 30.161
lfingers 7.12502
lthumb -1.68925 60.1341
rfemur -23.8435 -7.50083 14.6396
rtibia 50.4647
rfoot -27.5065 2.07662
rtoes -8.34637
lfemur -23.9064 6.67542 -8.22755
ltibia 48.4391
lfoot -23.6522 0.4127
ltoes -9.77091
199
root -2.895 16.3185 -36.1191 3.85966 0.651989 -2.93526
lowerback 7.26374 1.9262 -1.70352
upperback -3.78193 2.50385 1.33438
thorax -8.20625 1.35876 2.00694
lowerneck -3.39575 -3.87697 -6.57604
upperneck 6.85346 -5.23087 6.00212
head 3.22524 -2.57708 2.9601
rclavicle -8.74264e-015 -1.49089e-015
rhumerus -32.2337 2.07489 -79.9381
rradius 30.4653
rwrist 3.19942
rhand -19.6668 -26.9326
rfingers 7.12502
rthumb 6.66151 -56.8078
lclavicle -8.74264e-015 -1.49089e-015
lhumerus -26.5925 -1.66504 88.6693
lradius 24.1922
lwrist -31.4989
lhand -28.2932 30.1674
lfingers 7.12502
lthumb -1.66913 60.1406
rfemur -23.8508 -7.5334 14.659
rtibia 50.5015
rfoot -27.5251 2.11568
rtoes -8.27257
lfemur -23.9187 6.70193 -8.2039
ltibia 48.4775
lfoot -23.6635 0.42532
ltoes -9.79667
200
root -2.8958 16.316 -36.1178 3.84211 0.65731 -2.94747
lowerback 7.25461 1.93217 -1.67897
upperback -3.76619 2.51391 1.32733
thorax -8.18289 1.36179 1.98472
lowerneck -3.38982 -3.89361 -6.5717
upperneck 6.85862 -5.25495 6.01406
head 3.22799 -2.58864 2.96239
rclavicle 1.85025e-014 3.80673e-014
rhumerus -32.1923 2.02843 -79.9369
rradius 30.4259
rwrist 3.20878
rhand -19.7085 -26.9862
rfingers 7.12502
rthumb 6.62126 -56.8627
lclavicle 1.85025e-014 3.80673e-014
lhumerus -26.5776 -1.68252 88.6775
lradius 24.2181
lwrist -31.4996
lhand -28.2319 30.4196
lfingers 7.12502
lthumb -1.60987 60.3932
rfemur -23.8427 -7.53495 14.6705
rtibia 50.542
rfoot -27.5359 2.10732
rtoes -8.27728
lfemur -23.9124 6.70103 -8.17679
ltibia 48.5105
lfoot -23.7077 0.363767
ltoes -9.73748
201
root -2.89625 16.3143 -36.1166 3.83805 0.666781 -2.91587
lowerback 7.27004 1.9283 -1.70445
upperback -3.7725 2.50519 1.31859
thorax -8.19904 1.35879 1.99051
lowerneck -3.41105 -3.89575 -6.58477
upperneck 6.88976 -5.25805 6.0276
head 3.24415 -2.5898 2.96932
rclavicle 2.46641e-014 2.38542e-015
rhumerus -32.221 2.07134 -79.9521
rradius 30.4652
rwrist 3.15981
rhand -19.7854 -27.0078
rfingers 7.12502
rthumb 6.54697 -56.8866
lclavicle 2.46641e-014 2.38542e-015
lhumerus -26.57 -1.70012 88.6974
lradius 24.215
lwrist -31.4609
lhand -28.2263 30.3615
lfingers 7.12502
lthumb -1.60447 60.3352
rfemur -23.8501 -7.57244 14.6347
rtibia 50.5829
rfoot -27.5636 2.10109
rtoes -8.34426
lfemur -23.9207 6.6939 -8.21289
ltibia 48.5359
lfoot -23.7278 0.409043
ltoes -9.79515
202
root -2.89761 16.3121 -36.1152 3.80989 0.642996 -2.89704
lowerback 7.28489 1.94219 -1.73506
upperback -3.76756 2.5199 1.31288
thorax -8.20437 1.36743 1.99914
lowerneck -3.39252 -3.89637 -6.55403
upperneck 6.88303 -5.25928 5.99758
head 3.2358 -2.59081 2.95318
rclavicle -3.55576e-014 -3.01159e-014
rhumerus -32.2143 2.06124 -79.9506
rradius 30.4443
rwrist 3.16103
rhand -19.7808 -26.9849
rfingers 7.12502
rthumb 6.55139 -56.8636
lclavicle -3.55576e-014 -3.01159e-014
lhumerus -26.5779 -1.71214 88.711
lradius 24.2208
lwrist -31.5025
lhand -28.2663 30.213
lfingers 7.12502
lthumb -1.64315 60.1864
rfemur -23.8404 -7.5478 14.6141
rtibia 50.6205
rfoot -27.5692 2.10548
rtoes -8.41626
lfemur -23.8893 6.72257 -8.22237
ltibia 48.5616
lfoot -23.7532 0.396304
ltoes -9.80484
